<?xml version="1.0" encoding="UTF-8" standalone="no"?>
<!DOCTYPE svg PUBLIC "-//W3C//DTD SVG 1.1//EN"
 "http://www.w3.org/Graphics/SVG/1.1/DTD/svg11.dtd">
<!-- Generated by graphviz version 2.50.0 (20211204.2007)
 -->
<!-- Title: graphname Pages: 1 -->
<svg width="1431pt" height="402pt"
 viewBox="0.00 0.00 1431.00 402.00" xmlns="http://www.w3.org/2000/svg" xmlns:xlink="http://www.w3.org/1999/xlink">
<g id="graph0" class="graph" transform="scale(1 1) rotate(0) translate(4 398)">
<title>graphname</title>
<polygon fill="white" stroke="transparent" points="-4,4 -4,-398 1427,-398 1427,4 -4,4"/>
<g id="clust1" class="cluster">
<title>clusterData</title>
<polygon fill="none" stroke="black" points="8,-249 8,-340 858,-340 858,-249 8,-249"/>
</g>
<g id="clust3" class="cluster">
<title>clusterInputs</title>
<polygon fill="none" stroke="blue" points="316,-257 316,-332 850,-332 850,-257 316,-257"/>
<text text-anchor="middle" x="583" y="-316.8" font-family="Times New Roman,serif" font-size="14.00">Inputs</text>
</g>
<g id="clust2" class="cluster">
<title>clusterActions</title>
<polygon fill="none" stroke="blue" points="16,-257 16,-332 308,-332 308,-257 16,-257"/>
<text text-anchor="middle" x="162" y="-316.8" font-family="Times New Roman,serif" font-size="14.00">Actions</text>
</g>
<g id="clust4" class="cluster">
<title>clusterStates</title>
<polygon fill="none" stroke="blue" points="866,-8 866,-386 1415,-386 1415,-8 866,-8"/>
<text text-anchor="middle" x="1140.5" y="-370.8" font-family="Times New Roman,serif" font-size="14.00">States</text>
</g>
<!-- Actions -->
<!-- Ok -->
<g id="node2" class="node">
<title>Ok</title>
<polygon fill="none" stroke="black" points="228,-301 174,-301 174,-265 228,-265 228,-301"/>
<text text-anchor="middle" x="201" y="-279.3" font-family="Times New Roman,serif" font-size="14.00">Ok</text>
</g>
<!-- Open -->
<g id="node3" class="node">
<title>Open</title>
<polygon fill="none" stroke="black" points="156,-301 102,-301 102,-265 156,-265 156,-301"/>
<text text-anchor="middle" x="129" y="-279.3" font-family="Times New Roman,serif" font-size="14.00">Open</text>
</g>
<!-- Welded -->
<g id="node4" class="node">
<title>Welded</title>
<polygon fill="none" stroke="black" points="84,-301 24,-301 24,-265 84,-265 84,-301"/>
<text text-anchor="middle" x="54" y="-279.3" font-family="Times New Roman,serif" font-size="14.00">Welded</text>
</g>
<!-- Inputs -->
<!-- DO_state_ON -->
<g id="node6" class="node">
<title>DO_state_ON</title>
<polygon fill="none" stroke="black" points="770,-301 672,-301 672,-265 770,-265 770,-301"/>
<text text-anchor="middle" x="721" y="-279.3" font-family="Times New Roman,serif" font-size="14.00">DO_state_ON</text>
</g>
<!-- DI_state_ON -->
<g id="node7" class="node">
<title>DI_state_ON</title>
<polygon fill="none" stroke="black" points="654,-301 562,-301 562,-265 654,-265 654,-301"/>
<text text-anchor="middle" x="608" y="-279.3" font-family="Times New Roman,serif" font-size="14.00">DI_state_ON</text>
</g>
<!-- DI_state_OFF -->
<g id="node8" class="node">
<title>DI_state_OFF</title>
<polygon fill="none" stroke="black" points="544,-301 446,-301 446,-265 544,-265 544,-301"/>
<text text-anchor="middle" x="495" y="-279.3" font-family="Times New Roman,serif" font-size="14.00">DI_state_OFF</text>
</g>
<!-- DO_state_OFF -->
<g id="node9" class="node">
<title>DO_state_OFF</title>
<polygon fill="none" stroke="black" points="428,-301 324,-301 324,-265 428,-265 428,-301"/>
<text text-anchor="middle" x="376" y="-279.3" font-family="Times New Roman,serif" font-size="14.00">DO_state_OFF</text>
</g>
<!-- StOn -->
<g id="node10" class="node">
<title>StOn</title>
<ellipse fill="red" stroke="black" cx="955" cy="-283" rx="72" ry="72"/>
<text text-anchor="middle" x="955" y="-279.3" font-family="Times New Roman,serif" font-size="14.00">ON/SetOn</text>
</g>
<!-- StOn&#45;&gt;StOn -->
<g id="edge3" class="edge">
<title>StOn&#45;&gt;StOn</title>
<path fill="none" stroke="green" d="M1027.03,-288.44C1037.75,-287.6 1045,-285.78 1045,-283 1045,-281.22 1042.02,-279.83 1037.07,-278.85"/>
<polygon fill="green" stroke="green" points="1037.39,-275.36 1027.03,-277.56 1036.5,-282.3 1037.39,-275.36"/>
<text text-anchor="middle" x="1096.5" y="-279.3" font-family="Times New Roman,serif" font-size="14.00">DO_state_ON/Ok</text>
</g>
<!-- StOn&#45;&gt;StOn -->
<g id="edge4" class="edge">
<title>StOn&#45;&gt;StOn</title>
<path fill="none" stroke="green" d="M1026.26,-293.97C1082.38,-297 1148,-293.34 1148,-283 1148,-273.28 1090.09,-269.47 1036.54,-271.55"/>
<polygon fill="green" stroke="green" points="1036.09,-268.07 1026.26,-272.03 1036.41,-275.06 1036.09,-268.07"/>
<text text-anchor="middle" x="1196.5" y="-279.3" font-family="Times New Roman,serif" font-size="14.00">DI_state_ON/Ok</text>
</g>
<!-- StOn&#45;&gt;StOn -->
<g id="edge5" class="edge">
<title>StOn&#45;&gt;StOn</title>
<path fill="none" stroke="blue" d="M1025.67,-297.24C1113.38,-305.23 1245,-300.48 1245,-283 1245,-266.18 1123.21,-261.15 1035.87,-267.9"/>
<polygon fill="blue" stroke="blue" points="1035.34,-264.43 1025.67,-268.76 1035.93,-271.41 1035.34,-264.43"/>
<text text-anchor="middle" x="1303.5" y="-279.3" font-family="Times New Roman,serif" font-size="14.00" fill="blue">DI_state_OFF/Open</text>
</g>
<!-- StOff -->
<g id="node11" class="node">
<title>StOff</title>
<ellipse fill="#4876ff" stroke="black" cx="946" cy="-88" rx="72" ry="72"/>
<text text-anchor="middle" x="946" y="-84.3" font-family="Times New Roman,serif" font-size="14.00">OFF/SetOff</text>
</g>
<!-- StOn&#45;&gt;StOff -->
<g id="edge1" class="edge">
<title>StOn&#45;&gt;StOff</title>
<path fill="none" stroke="green" d="M926.17,-216.72C923.64,-208.85 921.48,-200.83 920,-193 918.31,-184.07 918.21,-174.76 919.15,-165.55"/>
<polygon fill="green" stroke="green" points="922.62,-166 920.56,-155.6 915.69,-165.01 922.62,-166"/>
<text text-anchor="middle" x="974.5" y="-181.8" font-family="Times New Roman,serif" font-size="14.00">DO_state_OFF/Ok</text>
</g>
<!-- StOff&#45;&gt;StOn -->
<g id="edge2" class="edge">
<title>StOff&#45;&gt;StOn</title>
<path fill="none" stroke="green" d="M1000.97,-135.06C1012.38,-147.69 1022.81,-162.27 1029,-178 1036.16,-196.17 1029.62,-214.16 1017.96,-229.93"/>
<polygon fill="green" stroke="green" points="1015.02,-228 1011.44,-237.97 1020.46,-232.41 1015.02,-228"/>
<text text-anchor="middle" x="1082.5" y="-181.8" font-family="Times New Roman,serif" font-size="14.00">DO_state_ON/Ok</text>
</g>
<!-- StOff&#45;&gt;StOff -->
<g id="edge6" class="edge">
<title>StOff&#45;&gt;StOff</title>
<path fill="none" stroke="red" d="M1018.03,-93.44C1028.75,-92.6 1036,-90.78 1036,-88 1036,-86.22 1033.02,-84.83 1028.07,-83.85"/>
<polygon fill="red" stroke="red" points="1028.39,-80.36 1018.03,-82.56 1027.5,-87.3 1028.39,-80.36"/>
<text text-anchor="middle" x="1097.5" y="-84.3" font-family="Times New Roman,serif" font-size="14.00" fill="red">DI_state_ON/Welded</text>
</g>
<!-- StOff&#45;&gt;StOff -->
<g id="edge7" class="edge">
<title>StOff&#45;&gt;StOff</title>
<path fill="none" stroke="green" d="M1017.41,-98.68C1080.49,-102.22 1159,-98.66 1159,-88 1159,-77.91 1088.55,-74.18 1027.5,-76.82"/>
<polygon fill="green" stroke="green" points="1027.22,-73.33 1017.41,-77.32 1027.57,-80.32 1027.22,-73.33"/>
<text text-anchor="middle" x="1210.5" y="-84.3" font-family="Times New Roman,serif" font-size="14.00">DI_state_OFF/Ok</text>
</g>
<!-- StOff&#45;&gt;StOff -->
<g id="edge8" class="edge">
<title>StOff&#45;&gt;StOff</title>
<path fill="none" stroke="green" d="M1016.83,-101.84C1111.86,-110.38 1262,-105.77 1262,-88 1262,-70.86 1122.23,-65.96 1027.04,-73.3"/>
<polygon fill="green" stroke="green" points="1026.5,-69.84 1016.83,-74.16 1027.08,-76.81 1026.5,-69.84"/>
<text text-anchor="middle" x="1316.5" y="-84.3" font-family="Times New Roman,serif" font-size="14.00">DO_state_OFF/Ok</text>
</g>
</g>
</svg>
